<svg xmlns="http://www.w3.org/2000/svg" width="1048" height="299" viewBox="0 0 1048 299">
<g>
<path d="M 74.00 216.00 L 74.00 287.00 L 27.00 287.00 L 27.00 263.46 C27.00,232.89 28.86,223.59 38.39,206.68 C43.88,196.91 58.58,184.03 67.00,181.59 C82.31,177.16 84.46,176.90 108.00,176.54 C134.82,176.12 138.86,175.34 146.85,169.02 C156.37,161.50 160.00,154.37 160.00,143.21 C160.00,132.91 157.51,126.47 150.94,119.84 C146.30,115.15 144.19,113.83 138.57,112.09 C132.35,110.17 129.40,110.00 102.89,110.00 L 74.00 110.00 L 73.98 133.75 C73.98,146.81 73.64,158.00 73.23,158.61 C72.83,159.21 70.70,160.28 68.50,160.98 C58.60,164.12 48.53,170.39 40.44,178.46 C36.01,182.88 31.19,188.07 29.74,190.00 L 27.09 193.50 L 27.00 71.00 L 86.34 71.00 C141.72,71.00 146.18,71.13 153.24,72.93 C174.54,78.38 191.11,89.87 200.08,105.41 C208.37,119.78 211.24,141.56 207.05,158.30 C201.37,180.99 189.97,195.29 170.72,203.91 L 163.93 206.95 L 165.90 210.72 C166.99,212.80 169.48,216.75 171.44,219.50 C173.40,222.25 177.33,227.88 180.18,232.00 C201.69,263.19 214.87,276.25 231.71,283.09 C234.61,284.26 236.73,285.62 236.43,286.11 C236.13,286.60 220.07,287.00 200.58,287.00 L 165.27 287.00 L 155.82 272.75 C150.62,264.91 141.46,251.30 135.48,242.50 C129.50,233.70 123.05,224.14 121.16,221.25 L 117.71 216.00 ZM 384.00 246.08 L 384.00 287.00 L 336.75 286.91 C291.82,286.82 288.96,286.71 278.50,284.56 C265.56,281.91 252.74,276.91 242.50,270.54 C231.91,263.93 218.50,249.21 210.14,235.00 C208.36,231.98 204.96,226.40 202.59,222.62 L 198.28 215.74 L 208.40 205.62 C218.83,195.18 223.93,187.32 228.89,174.00 C236.27,154.16 236.51,132.31 229.59,110.50 C222.93,89.52 206.57,70.87 186.45,61.32 C181.19,58.82 179.26,57.45 180.18,56.87 C180.90,56.41 182.33,56.02 183.35,56.02 C185.50,56.00 203.24,50.98 213.61,47.46 C227.82,42.63 242.83,35.72 258.18,26.96 C266.81,22.03 274.34,18.00 274.92,18.00 C275.64,18.00 276.05,51.12 276.23,124.91 L 276.50 231.83 L 279.51 236.16 C281.41,238.91 284.34,241.42 287.51,243.00 L 292.50 245.50 Z" fill="rgb(6,145,78)"/>
<path d="M 447.06 136.00 L 446.50 161.50 L 436.37 161.78 C427.80,162.02 426.14,161.82 425.62,160.45 C425.28,159.56 425.00,139.27 425.00,115.35 L 425.00 71.85 L 451.75 72.24 C481.49,72.67 485.32,73.32 493.21,79.32 C501.29,85.46 506.01,98.11 504.08,108.50 C502.34,117.94 499.78,122.40 493.12,127.57 C488.33,131.28 487.26,132.60 487.99,133.88 C488.49,134.77 492.73,141.12 497.40,148.00 C502.08,154.87 505.55,160.85 505.12,161.28 C504.68,161.72 499.68,161.94 494.01,161.79 L 483.69 161.50 L 466.51 136.00 ZM 661.00 261.00 L 661.00 286.00 L 640.00 286.00 L 640.00 196.00 L 661.25 196.01 C684.28,196.01 690.30,196.65 699.50,200.04 C706.43,202.60 714.06,209.80 716.19,215.80 C716.91,217.83 717.49,223.55 717.49,228.50 C717.47,241.32 714.68,246.55 703.57,254.61 L 700.66 256.72 L 703.88 261.97 C705.66,264.85 710.01,271.23 713.56,276.15 C717.10,281.07 720.00,285.30 720.00,285.55 C720.00,285.80 714.92,286.00 708.71,286.00 L 697.42 286.00 L 689.04 273.50 L 680.66 261.00 ZM 628.78 148.75 L 628.50 161.50 L 618.95 161.78 C613.70,161.94 609.09,161.75 608.70,161.37 C608.32,160.98 608.00,140.68 608.00,116.25 L 608.00 71.83 L 633.75 72.24 C661.67,72.69 666.72,73.51 674.00,78.74 C682.35,84.75 685.53,91.90 685.44,104.50 C685.35,116.60 680.78,125.12 671.41,130.61 C664.34,134.75 657.82,135.98 642.78,135.99 L 629.06 136.00 ZM 709.33 152.23 L 705.30 161.50 L 694.65 161.78 C688.79,161.94 684.00,161.66 684.00,161.17 C684.00,160.68 685.84,156.28 688.09,151.39 C690.33,146.50 692.77,141.15 693.50,139.50 C694.23,137.85 695.95,134.02 697.32,131.00 C698.69,127.97 703.94,116.28 708.98,105.00 C714.03,93.72 719.45,81.69 721.03,78.25 L 723.89 72.00 L 745.63 72.00 L 762.48 108.75 C771.74,128.96 780.97,148.99 782.98,153.26 C785.00,157.53 786.43,161.24 786.16,161.51 C785.89,161.78 780.99,162.00 775.28,162.00 L 764.89 162.00 L 761.89 155.25 C760.24,151.54 758.34,147.38 757.66,146.00 L 756.42 143.50 L 734.89 143.23 L 713.36 142.96 ZM 804.79 277.25 L 804.50 285.50 L 734.00 286.03 L 734.00 196.00 L 803.08 196.00 L 802.79 204.25 L 802.50 212.50 L 755.00 213.04 L 755.00 232.00 L 797.08 232.00 L 796.79 240.25 L 796.50 248.50 L 775.75 248.77 L 755.00 249.04 L 755.00 269.00 L 805.08 269.00 ZM 591.79 153.25 L 591.50 161.50 L 556.25 161.76 L 521.00 162.03 L 521.00 72.00 L 590.08 72.00 L 589.79 80.25 L 589.50 88.50 L 541.93 89.04 L 542.50 107.50 L 584.00 108.04 L 584.00 124.00 L 542.00 124.00 L 542.00 145.00 L 592.08 145.00 ZM 1037.79 153.25 L 1037.50 161.50 L 1002.93 161.76 C983.92,161.91 968.05,161.72 967.68,161.35 C967.31,160.97 967.00,140.72 967.00,116.33 L 967.00 72.00 L 1036.08 72.00 L 1035.79 80.25 L 1035.50 88.50 L 987.93 89.04 L 988.50 107.50 L 1030.00 108.04 L 1030.00 124.00 L 988.00 124.00 L 988.00 145.00 L 1038.08 145.00 ZM 925.31 162.57 C915.54,164.44 906.57,163.93 895.00,160.87 C888.36,159.11 877.00,153.20 877.00,151.51 C877.00,149.21 883.31,137.00 884.49,137.00 C885.08,137.00 886.44,137.62 887.53,138.38 C891.85,141.41 902.48,145.12 909.29,145.97 C922.49,147.63 931.00,144.15 931.00,137.10 C931.00,131.16 928.29,129.43 913.42,125.88 C896.08,121.75 890.55,119.42 884.88,113.87 C879.32,108.43 877.46,103.13 878.46,95.53 C879.74,85.80 886.45,77.87 896.67,74.00 C909.21,69.25 923.86,69.22 939.01,73.92 C949.77,77.25 949.81,77.31 945.99,86.07 C944.21,90.16 942.63,93.64 942.47,93.82 C942.32,94.00 940.46,93.26 938.35,92.19 C920.29,83.03 896.12,87.45 900.21,99.16 C901.47,102.78 906.58,105.51 915.73,107.46 C926.03,109.66 938.81,113.72 942.36,115.91 C949.54,120.35 953.01,126.67 952.98,135.22 C952.92,149.05 942.59,159.26 925.31,162.57 ZM 838.47 162.95 C829.21,164.29 827.28,164.21 814.52,161.89 C807.55,160.63 797.05,156.61 793.57,153.88 L 791.14 151.97 L 794.17 145.23 C795.83,141.53 797.58,138.09 798.05,137.60 C798.55,137.07 802.36,138.45 807.20,140.89 C816.43,145.56 826.23,147.30 835.27,145.87 C843.86,144.51 848.54,139.67 846.21,134.55 C844.44,130.69 841.22,129.20 826.90,125.64 C806.36,120.54 797.81,115.37 794.54,106.11 C792.70,100.91 792.64,98.79 794.12,91.80 C795.63,84.67 802.88,77.25 811.41,74.10 C823.87,69.48 840.25,69.39 853.15,73.87 C857.86,75.50 862.62,77.57 863.76,78.48 C863.90,78.59 862.42,82.13 860.48,86.35 L 856.94 94.01 L 853.22 92.11 C851.17,91.07 845.56,89.40 840.75,88.40 C833.33,86.87 831.13,86.77 826.36,87.77 C819.76,89.16 816.34,91.16 814.79,94.55 C812.33,99.97 817.67,104.87 828.31,106.97 C839.21,109.12 853.36,113.82 858.20,116.91 C864.71,121.04 867.32,126.37 867.32,135.50 C867.32,140.63 866.76,143.57 865.25,146.50 C860.75,155.18 851.06,161.13 838.47,162.95 ZM 589.16 286.37 C585.47,286.98 584.08,286.97 576.18,286.26 C575.13,286.17 574.36,286.19 573.67,285.98 C571.06,285.18 569.49,281.04 558.36,255.00 C550.26,236.04 549.99,235.42 544.62,223.37 C542.63,218.90 541.00,214.98 541.00,214.64 C541.00,214.31 539.20,210.20 537.00,205.50 C534.80,200.80 533.00,196.75 533.00,196.48 C533.00,196.22 538.11,196.00 544.37,196.00 L 555.73 196.00 L 560.82 208.25 C563.61,214.99 567.54,224.32 569.54,229.00 C574.27,240.03 577.78,248.40 580.01,254.00 C580.99,256.48 582.18,258.44 582.65,258.38 C583.37,258.27 591.37,240.54 600.41,219.00 C601.68,215.98 604.40,209.56 606.46,204.75 L 610.20 196.00 L 620.60 196.00 C626.32,196.00 631.00,196.38 631.00,196.85 C631.00,197.31 630.38,199.00 629.62,200.60 C628.87,202.19 626.88,206.65 625.20,210.50 C608.40,249.14 599.65,269.40 596.01,278.13 C592.99,285.36 592.63,285.80 589.16,286.37 ZM 492.79 277.27 L 492.50 285.50 L 459.93 285.76 C442.02,285.91 427.05,285.72 426.68,285.35 C426.31,284.97 426.00,264.72 426.00,240.33 L 426.00 196.00 L 446.98 196.00 L 447.50 268.50 L 470.29 268.77 L 493.08 269.04 ZM 524.00 196.00 L 524.00 286.00 L 514.06 286.00 C504.26,286.00 503.19,285.72 503.56,283.25 C503.66,282.56 503.81,262.65 503.88,239.00 L 504.00 196.00 ZM 447.00 89.00 L 447.00 119.00 L 458.79 119.00 C472.76,119.00 478.22,117.05 481.25,111.00 C485.25,102.98 482.16,92.78 474.97,90.31 C473.06,89.65 465.99,89.09 459.25,89.06 ZM 661.75 243.45 C662.16,243.88 667.45,244.01 673.51,243.76 C686.89,243.18 691.85,241.17 694.99,235.03 C697.54,230.03 697.54,225.97 694.99,220.98 C691.85,214.83 688.55,213.62 673.75,213.18 L 661.00 212.80 L 661.00 227.73 C661.00,235.95 661.34,243.02 661.75,243.45 ZM 629.00 88.80 L 629.00 119.20 L 641.75 118.82 C656.81,118.37 659.73,117.25 662.90,110.71 C665.52,105.30 665.57,100.45 663.04,96.30 C659.43,90.37 657.01,89.54 642.30,89.15 ZM 720.80 126.47 C721.83,127.50 747.87,127.02 748.53,125.96 C748.88,125.39 747.85,122.12 746.23,118.71 C744.62,115.29 741.56,108.34 739.44,103.25 C737.32,98.16 735.00,94.00 734.29,94.00 C733.58,94.00 732.99,94.56 732.99,95.25 C732.98,95.94 730.11,103.12 726.62,111.22 C723.13,119.31 720.51,126.18 720.80,126.47 Z" fill="rgb(26,38,42)"/>
</g>
<text x="812" y="220" font-family="Arial, Helvetica, sans-serif" font-size="40" fill="rgb(26,38,42)">®</text>
</svg>
