<svg width="64" height="64" viewBox="0 0 64 64" xmlns="http://www.w3.org/2000/svg">
  <g transform="translate(32,32) scale(0.175) translate(-205.5,-152.5)">
    <path
      d="M 74.00 216.00 L 74.00 287.00 L 27.00 287.00 L 27.00 263.46 C27.00,232.89 28.86,223.59 38.39,206.68 C43.88,196.91 58.58,184.03 67.00,181.59 C82.31,177.16 84.46,176.90 108.00,176.54 C134.82,176.12 138.86,175.34 146.85,169.02 C156.37,161.50 160.00,154.37 160.00,143.21 C160.00,132.91 157.51,126.47 150.94,119.84 C146.30,115.15 144.19,113.83 138.57,112.09 C132.35,110.17 129.40,110.00 102.89,110.00 L 74.00 110.00 L 73.98 133.75 C73.98,146.81 73.64,158.00 73.23,158.61 C72.83,159.21 70.70,160.28 68.50,160.98 C58.60,164.12 48.53,170.39 40.44,178.46 C36.01,182.88 31.19,188.07 29.74,190.00 L 27.09 193.50 L 27.00 71.00 L 86.34 71.00 C141.72,71.00 146.18,71.13 153.24,72.93 C174.54,78.38 191.11,89.87 200.08,105.41 C208.37,119.78 211.24,141.56 207.05,158.30 C201.37,180.99 189.97,195.29 170.72,203.91 L 163.93 206.95 L 165.90 210.72 C166.99,212.80 169.48,216.75 171.44,219.50 C173.40,222.25 177.33,227.88 180.18,232.00 C201.69,263.19 214.87,276.25 231.71,283.09 C234.61,284.26 236.73,285.62 236.43,286.11 C236.13,286.60 220.07,287.00 200.58,287.00 L 165.27 287.00 L 155.82 272.75 C150.62,264.91 141.46,251.30 135.48,242.50 C129.50,233.70 123.05,224.14 121.16,221.25 L 117.71 216.00 ZM 384.00 246.08 L 384.00 287.00 L 336.75 286.91 C291.82,286.82 288.96,286.71 278.50,284.56 C265.56,281.91 252.74,276.91 242.50,270.54 C231.91,263.93 218.50,249.21 210.14,235.00 C208.36,231.98 204.96,226.40 202.59,222.62 L 198.28 215.74 L 208.40 205.62 C218.83,195.18 223.93,187.32 228.89,174.00 C236.27,154.16 236.51,132.31 229.59,110.50 C222.93,89.52 206.57,70.87 186.45,61.32 C181.19,58.82 179.26,57.45 180.18,56.87 C180.90,56.41 182.33,56.02 183.35,56.02 C185.50,56.00 203.24,50.98 213.61,47.46 C227.82,42.63 242.83,35.72 258.18,26.96 C266.81,22.03 274.34,18.00 274.92,18.00 C275.64,18.00 276.05,51.12 276.23,124.91 L 276.50 231.83 L 279.51 236.16 C281.41,238.91 284.34,241.42 287.51,243.00 L 292.50 245.50 Z"
      fill="rgb(6,145,78)"
    />
  </g>
</svg>
